<svg width="205" height="49" viewBox="0 0 205 49" fill="none" xmlns="http://www.w3.org/2000/svg">
<path d="M0 40.4126L15.4118 8.29495L33.7647 40.4126H26.1176L15.4118 21.1185L10.3529 34.5302H20.7059V40.4126H0Z" fill="white"/>
<path d="M49.7392 18.6325C43.407 10.1895 32.1868 14.5221 31.187 23.0761L27.2988 16.1885C35.2974 4.3017 50.9612 6.07916 56.1825 18.6325H49.7392Z" fill="white"/>
<path d="M40.6294 40.2952L37.1855 33.7408C42.629 35.9626 47.6281 33.5186 49.8499 29.8526H40.6294V24.4091H57.293C57.293 33.2964 50.4054 40.5174 40.6294 40.2952Z" fill="white"/>
<path d="M65.0176 23.217L70.2196 9.87847H72.5443L77.7083 23.217H75.1358L72.2776 15.6331C72.2141 15.4807 72.1251 15.2393 72.0108 14.909C71.9092 14.5787 71.7948 14.223 71.6678 13.8419C71.5408 13.4481 71.4264 13.0861 71.3248 12.7558C71.2232 12.4128 71.147 12.1651 71.0962 12.0126L71.5725 11.9936C71.4963 12.2477 71.4074 12.5335 71.3058 12.8511C71.2041 13.1687 71.0962 13.4989 70.9818 13.8419C70.8675 14.1849 70.7532 14.5152 70.6388 14.8328C70.5372 15.1504 70.4419 15.4362 70.353 15.6903L67.4947 23.217H65.0176ZM67.3804 20.1682L68.2379 18.015H74.3165L75.2311 20.1682H67.3804Z" fill="white"/>
<path d="M79.3898 23.217V13.175H81.6954L81.7335 16.3763L81.4096 15.6522C81.5493 15.144 81.7907 14.6867 82.1337 14.2802C82.4767 13.8737 82.8705 13.5561 83.3151 13.3274C83.7724 13.0861 84.2488 12.9654 84.7442 12.9654C84.9602 12.9654 85.1635 12.9845 85.354 13.0226C85.5573 13.0607 85.7224 13.1051 85.8494 13.1559L85.2206 15.7284C85.0809 15.6522 84.9094 15.5887 84.7061 15.5378C84.5029 15.487 84.2996 15.4616 84.0964 15.4616C83.7788 15.4616 83.4739 15.5251 83.1817 15.6522C82.9022 15.7665 82.6545 15.9316 82.4386 16.1476C82.2226 16.3636 82.0511 16.6176 81.9241 16.9098C81.8097 17.1893 81.7526 17.5069 81.7526 17.8626V23.217H79.3898Z" fill="white"/>
<path d="M88.8683 23.217V10.6216H91.2121V23.217H88.8683ZM86.8866 15.3473V13.175H93.4034V15.3473H86.8866Z" fill="white"/>
<path d="M95.4551 23.217V13.175H97.7989V23.217H95.4551ZM96.5985 11.0408C96.1284 11.0408 95.76 10.9265 95.4933 10.6978C95.2392 10.4565 95.1122 10.1198 95.1122 9.68792C95.1122 9.28141 95.2455 8.95112 95.5123 8.69705C95.7791 8.44298 96.1411 8.31595 96.5985 8.31595C97.0812 8.31595 97.4496 8.43663 97.7037 8.678C97.9704 8.90666 98.1038 9.2433 98.1038 9.68792C98.1038 10.0817 97.9704 10.4057 97.7037 10.6597C97.4369 10.9138 97.0685 11.0408 96.5985 11.0408Z" fill="white"/>
<path d="M101.686 23.217V12.2794C101.686 11.6696 101.819 11.1298 102.086 10.6597C102.353 10.177 102.721 9.80225 103.191 9.53548C103.661 9.256 104.207 9.11626 104.83 9.11626C105.262 9.11626 105.662 9.19248 106.03 9.34493C106.399 9.48466 106.71 9.68157 106.964 9.93563L106.24 11.7078C106.075 11.568 105.897 11.46 105.706 11.3838C105.528 11.3076 105.357 11.2695 105.192 11.2695C104.938 11.2695 104.722 11.314 104.544 11.4029C104.379 11.4791 104.252 11.5998 104.163 11.7649C104.087 11.9301 104.048 12.127 104.048 12.3556V23.217H102.867C102.638 23.217 102.422 23.217 102.219 23.217C102.029 23.217 101.851 23.217 101.686 23.217ZM100.123 15.4426V13.3846H106.316V15.4426H100.123Z" fill="white"/>
<path d="M111.671 23.4076C110.846 23.4076 110.096 23.1789 109.423 22.7216C108.75 22.2643 108.21 21.6418 107.803 20.8542C107.397 20.0666 107.193 19.171 107.193 18.1674C107.193 17.1639 107.397 16.2683 107.803 15.4807C108.21 14.6931 108.762 14.0769 109.461 13.6323C110.16 13.1877 110.947 12.9654 111.824 12.9654C112.332 12.9654 112.796 13.0416 113.215 13.1941C113.634 13.3338 114.002 13.5371 114.32 13.8038C114.638 14.0706 114.898 14.3755 115.101 14.7185C115.317 15.0615 115.463 15.4299 115.54 15.8237L115.025 15.6903V13.175H117.388V23.217H115.006V20.8161L115.559 20.7208C115.47 21.0638 115.305 21.4005 115.063 21.7308C114.834 22.0483 114.542 22.3342 114.187 22.5882C113.844 22.8296 113.456 23.0265 113.024 23.1789C112.605 23.3314 112.154 23.4076 111.671 23.4076ZM112.319 21.3306C112.865 21.3306 113.348 21.1972 113.767 20.9304C114.187 20.6637 114.511 20.2953 114.739 19.8252C114.981 19.3425 115.101 18.7899 115.101 18.1674C115.101 17.5577 114.981 17.0178 114.739 16.5478C114.511 16.0777 114.187 15.7093 113.767 15.4426C113.348 15.1758 112.865 15.0424 112.319 15.0424C111.773 15.0424 111.29 15.1758 110.871 15.4426C110.465 15.7093 110.147 16.0777 109.918 16.5478C109.69 17.0178 109.575 17.5577 109.575 18.1674C109.575 18.7899 109.69 19.3425 109.918 19.8252C110.147 20.2953 110.465 20.6637 110.871 20.9304C111.29 21.1972 111.773 21.3306 112.319 21.3306Z" fill="white"/>
<path d="M124.412 23.4076C123.472 23.4076 122.627 23.1789 121.877 22.7216C121.128 22.2643 120.537 21.6418 120.105 20.8542C119.673 20.0666 119.457 19.1774 119.457 18.1865C119.457 17.1956 119.673 16.3064 120.105 15.5188C120.537 14.7312 121.128 14.1087 121.877 13.6514C122.627 13.1941 123.472 12.9654 124.412 12.9654C125.314 12.9654 126.133 13.1369 126.87 13.4799C127.607 13.8229 128.178 14.2993 128.585 14.909L127.289 16.4715C127.098 16.2048 126.857 15.9634 126.565 15.7474C126.273 15.5315 125.961 15.36 125.631 15.233C125.301 15.1059 124.971 15.0424 124.64 15.0424C124.081 15.0424 123.58 15.1821 123.135 15.4616C122.703 15.7284 122.36 16.1031 122.106 16.5859C121.852 17.0559 121.725 17.5894 121.725 18.1865C121.725 18.7836 121.852 19.3171 122.106 19.7871C122.373 20.2572 122.728 20.6319 123.173 20.9114C123.618 21.1909 124.113 21.3306 124.659 21.3306C124.99 21.3306 125.307 21.2798 125.612 21.1782C125.93 21.0638 126.228 20.905 126.508 20.7018C126.787 20.4985 127.048 20.2445 127.289 19.9396L128.585 21.5211C128.153 22.0801 127.556 22.5374 126.794 22.8931C126.044 23.2361 125.25 23.4076 124.412 23.4076Z" fill="white"/>
<path d="M131.463 23.217V10.6216H133.807V23.217H131.463ZM129.481 15.3473V13.175H135.998V15.3473H129.481Z" fill="white"/>
<path d="M71.9918 40.274C70.9882 40.274 70.0608 40.1025 69.2097 39.7595C68.3586 39.4038 67.6154 38.9147 66.9803 38.2922C66.3578 37.6698 65.8751 36.9457 65.5321 36.12C65.1891 35.2815 65.0176 34.3732 65.0176 33.3951C65.0176 32.4296 65.1891 31.534 65.5321 30.7083C65.8878 29.8699 66.3832 29.1458 67.0184 28.536C67.6535 27.9136 68.3967 27.4308 69.2478 27.0878C70.1116 26.7448 71.039 26.5733 72.0299 26.5733C72.7285 26.5733 73.4018 26.6686 74.0497 26.8592C74.6976 27.0497 75.2819 27.3165 75.8028 27.6595C76.3236 28.0025 76.7555 28.3899 77.0985 28.8218L75.536 30.4606C75.1803 30.1176 74.8119 29.8318 74.4308 29.6031C74.0624 29.3744 73.675 29.1966 73.2684 29.0696C72.8619 28.9425 72.4427 28.879 72.0108 28.879C71.3756 28.879 70.7849 28.9933 70.2387 29.222C69.7051 29.4507 69.2351 29.7683 68.8286 30.1748C68.4348 30.5813 68.1236 31.0576 67.8949 31.6039C67.6662 32.1501 67.5519 32.7472 67.5519 33.3951C67.5519 34.0175 67.6662 34.6083 67.8949 35.1672C68.1363 35.7262 68.4666 36.2152 68.8858 36.6344C69.305 37.0537 69.7877 37.3839 70.334 37.6253C70.8929 37.854 71.4836 37.9683 72.1061 37.9683C72.5761 37.9683 73.0144 37.8984 73.4209 37.7587C73.8274 37.619 74.1894 37.4284 74.507 37.187C74.8246 36.933 75.066 36.6408 75.2311 36.3105C75.409 35.9802 75.4979 35.6245 75.4979 35.2434V34.8242L75.8409 35.2244H71.8965V33.014H77.9369C77.9624 33.1537 77.9814 33.3125 77.9941 33.4904C78.0068 33.6555 78.0132 33.8206 78.0132 33.9858C78.0259 34.1382 78.0322 34.2716 78.0322 34.3859C78.0322 35.2625 77.8798 36.0628 77.5749 36.7869C77.27 37.4983 76.8381 38.1144 76.2792 38.6352C75.7329 39.1561 75.0914 39.5626 74.3546 39.8548C73.6305 40.1342 72.8429 40.274 71.9918 40.274Z" fill="white"/>
<path d="M84.9203 40.274C83.866 40.274 82.9323 40.0517 82.1192 39.607C81.3189 39.1624 80.6901 38.559 80.2328 37.7968C79.7882 37.0219 79.5659 36.139 79.5659 35.1481C79.5659 34.3605 79.6929 33.6428 79.947 32.9949C80.201 32.347 80.5504 31.7881 80.995 31.3181C81.4523 30.8353 81.9922 30.4669 82.6147 30.2129C83.2498 29.9461 83.9422 29.8127 84.6917 29.8127C85.3523 29.8127 85.9684 29.9397 86.54 30.1938C87.1117 30.4479 87.6071 30.7972 88.0263 31.2418C88.4455 31.6738 88.7631 32.1946 88.9791 32.8044C89.2078 33.4014 89.3157 34.0557 89.303 34.767L89.284 35.5864H81.1474L80.7092 33.9858H87.3213L87.0164 34.3097V33.8905C86.9783 33.4967 86.8513 33.1537 86.6353 32.8615C86.4194 32.5567 86.1399 32.3216 85.7969 32.1565C85.4666 31.9786 85.0982 31.8897 84.6917 31.8897C84.0692 31.8897 83.542 32.0104 83.1101 32.2518C82.6909 32.4931 82.3733 32.8425 82.1574 33.2998C81.9414 33.7444 81.8334 34.3034 81.8334 34.9767C81.8334 35.6245 81.9668 36.1898 82.2336 36.6726C82.5131 37.1553 82.9005 37.53 83.3959 37.7968C83.9041 38.0509 84.4948 38.1779 85.1681 38.1779C85.6381 38.1779 86.07 38.1017 86.4638 37.9492C86.8576 37.7968 87.2832 37.5237 87.7405 37.1299L88.9029 38.7496C88.5599 39.0671 88.1661 39.3403 87.7214 39.5689C87.2895 39.7849 86.8322 39.9564 86.3495 40.0834C85.8668 40.2105 85.3904 40.274 84.9203 40.274Z" fill="white"/>
<path d="M96.0855 40.274C95.0311 40.274 94.0974 40.0517 93.2844 39.607C92.484 39.1624 91.8552 38.559 91.3979 37.7968C90.9533 37.0219 90.731 36.139 90.731 35.1481C90.731 34.3605 90.858 33.6428 91.1121 32.9949C91.3661 32.347 91.7155 31.7881 92.1601 31.3181C92.6174 30.8353 93.1573 30.4669 93.7798 30.2129C94.415 29.9461 95.1073 29.8127 95.8568 29.8127C96.5174 29.8127 97.1335 29.9397 97.7051 30.1938C98.2768 30.4479 98.7722 30.7972 99.1914 31.2418C99.6107 31.6738 99.9282 32.1946 100.144 32.8044C100.373 33.4014 100.481 34.0557 100.468 34.767L100.449 35.5864H92.3125L91.8743 33.9858H98.4864L98.1815 34.3097V33.8905C98.1434 33.4967 98.0164 33.1537 97.8004 32.8615C97.5845 32.5567 97.305 32.3216 96.962 32.1565C96.6317 31.9786 96.2633 31.8897 95.8568 31.8897C95.2343 31.8897 94.7071 32.0104 94.2752 32.2518C93.856 32.4931 93.5384 32.8425 93.3225 33.2998C93.1065 33.7444 92.9985 34.3034 92.9985 34.9767C92.9985 35.6245 93.1319 36.1898 93.3987 36.6726C93.6782 37.1553 94.0656 37.53 94.561 37.7968C95.0692 38.0509 95.6599 38.1779 96.3332 38.1779C96.8032 38.1779 97.2351 38.1017 97.6289 37.9492C98.0227 37.7968 98.4483 37.5237 98.9056 37.1299L100.068 38.7496C99.725 39.0671 99.3312 39.3403 98.8866 39.5689C98.4546 39.7849 97.9973 39.9564 97.5146 40.0834C97.0319 40.2105 96.5555 40.274 96.0855 40.274Z" fill="white"/>
<path d="M104.735 37.0155L104.278 34.8242L109.042 30.0414H112.167L104.735 37.0155ZM102.544 40.0834V25.9826H104.888V40.0834H102.544ZM109.328 40.0834L105.631 35.6055L107.289 34.1954L112.224 40.0834H109.328Z" fill="white"/>
<path d="M117.026 40.274C116.136 40.274 115.336 40.1279 114.625 39.8357C113.926 39.5308 113.354 39.0989 112.91 38.54L114.434 37.2252C114.815 37.6571 115.241 37.9683 115.711 38.1589C116.181 38.3494 116.676 38.4447 117.197 38.4447C117.413 38.4447 117.604 38.4193 117.769 38.3685C117.947 38.3176 118.099 38.2414 118.226 38.1398C118.353 38.0382 118.448 37.9238 118.512 37.7968C118.588 37.6571 118.626 37.5046 118.626 37.3395C118.626 37.0346 118.512 36.7932 118.283 36.6154C118.156 36.5265 117.953 36.4312 117.673 36.3296C117.407 36.2279 117.057 36.1263 116.625 36.0247C115.939 35.8468 115.368 35.6436 114.91 35.4149C114.453 35.1736 114.097 34.9068 113.843 34.6146C113.627 34.3732 113.462 34.1001 113.348 33.7952C113.246 33.4904 113.195 33.1601 113.195 32.8044C113.195 32.3597 113.291 31.9596 113.481 31.6039C113.685 31.2355 113.958 30.9179 114.301 30.6511C114.644 30.3844 115.044 30.1811 115.501 30.0414C115.958 29.9016 116.435 29.8318 116.93 29.8318C117.438 29.8318 117.927 29.8953 118.398 30.0223C118.88 30.1494 119.325 30.3336 119.731 30.5749C120.151 30.8036 120.506 31.0831 120.798 31.4133L119.503 32.8425C119.261 32.6138 118.995 32.4106 118.702 32.2327C118.423 32.0549 118.137 31.9151 117.845 31.8135C117.553 31.6992 117.28 31.642 117.026 31.642C116.784 31.642 116.568 31.6674 116.378 31.7182C116.187 31.7563 116.028 31.8199 115.901 31.9088C115.774 31.9977 115.673 32.112 115.596 32.2518C115.533 32.3788 115.501 32.5312 115.501 32.7091C115.514 32.8615 115.552 33.0076 115.615 33.1474C115.692 33.2744 115.793 33.3824 115.92 33.4713C116.06 33.5602 116.27 33.6618 116.549 33.7762C116.829 33.8905 117.191 33.9985 117.635 34.1001C118.258 34.2653 118.779 34.4495 119.198 34.6527C119.617 34.856 119.947 35.091 120.189 35.3578C120.43 35.5864 120.602 35.8532 120.703 36.1581C120.805 36.4629 120.856 36.7996 120.856 37.168C120.856 37.765 120.684 38.2986 120.341 38.7686C120.011 39.2386 119.554 39.607 118.969 39.8738C118.398 40.1406 117.75 40.274 117.026 40.274Z" fill="white"/>
</svg>
